						<svg version="1.1" xmlns="http://www.w3.org/2000/svg" xmlns:xlink="http://www.w3.org/1999/xlink" width="72" viewBox="0 0 256 256" enable-background="new 0 0 256 256" xml:space="preserve">
						<g><g><g id="_x35_151e0c8492e5103c096af88a51f0aa3"><path fill="#9da4d8" d="M63.3,79.9l-11.1-6.4c-0.7-0.4-1.1-1.2-1.1-2V58.1c0-0.8-0.4-1.6-1.1-2l-4.7-2.7c-0.3-0.2-0.7-0.3-1.1-0.3c-0.4,0-0.8,0.1-1.1,0.3l-4.7,2.7c-0.7,0.4-1.1,1.2-1.1,2v13.5c0,0.8-0.4,1.5-1.1,2l-11.1,6.4c-0.3,0.2-0.8,0.2-1.1,0c-0.4-0.2-0.6-0.6-0.6-1l-0.1-29c0-0.8,0.4-1.6,1.1-2l18.7-10.8c0.3-0.2,0.7-0.3,1-0.3c0,0,0.2,0,0.2,0c0.4,0,0.7,0.1,1,0.3L63.9,48c0.7,0.4,1.1,1.2,1.1,2l0,29c0,0.4-0.2,0.8-0.6,1C64.1,80.1,63.6,80.1,63.3,79.9z M135.2,72.2V50.5c0-0.8,0.4-1.5,1.1-2l18.7-10.8c0.7-0.4,1.6-0.4,2.3,0l4.7,2.7c0.2,0.1,0.6,0.1,0.8,0c0.2-0.1,0.4-0.4,0.4-0.7V11.1c0-0.4,0.2-0.8,0.6-1c0.3-0.2,0.8-0.2,1.1,0l11.1,6.2c0.7,0.4,1.2,1.2,1.2,2v53.8c0,0.8-0.4,1.5-1.1,2l-18.7,10.8c-0.7,0.4-1.6,0.4-2.3,0l-18.7-10.8C135.6,73.7,135.2,72.9,135.2,72.2z M149.2,65c0,0.2,0.1,0.4,0.3,0.5l6.4,3.7c0.2,0.1,0.4,0.1,0.6,0l6.4-3.7c0.2-0.1,0.3-0.3,0.3-0.5v-7.4c0-0.2-0.1-0.4-0.3-0.5l-6.4-3.7c-0.2-0.1-0.4-0.1-0.6,0l-6.4,3.7c-0.2,0.1-0.3,0.3-0.3,0.5V65z M231.8,48.3l-18.6-10.8c-0.7-0.4-1.6-0.4-2.3,0l-18.7,10.8c-0.7,0.4-1.1,1.2-1.1,2v21.6c0,0.8,0.4,1.6,1.1,2l18.6,10.6c0.7,0.4,1.5,0.4,2.2,0l11.2-6.2c0.4-0.2,0.6-0.6,0.6-1s-0.2-0.8-0.6-1l-18.8-10.8c-0.4-0.2-0.6-0.6-0.6-1v-6.8c0-0.4,0.2-0.8,0.6-1l5.9-3.4c0.3-0.2,0.8-0.2,1.1,0l5.9,3.4c0.4,0.2,0.6,0.6,0.6,1V63c0,0.4,0.2,0.8,0.6,1c0.4,0.2,0.8,0.2,1.1,0l11.2-6.5c0.7-0.4,1.1-1.2,1.1-2v-5.2C232.9,49.4,232.5,48.7,231.8,48.3z M80.3,73.7L99,84.5c0.7,0.4,1.6,0.4,2.3,0L120,73.7c0.7-0.4,1.1-1.2,1.1-2V50.1c0-0.8-0.4-1.6-1.1-2l-18.7-10.8c-0.7-0.4-1.6-0.4-2.3,0L80.3,48.2c-0.7,0.4-1.1,1.2-1.1,2v21.6C79.2,72.6,79.6,73.3,80.3,73.7z M191.7,123.5l-57.7-33.3c-3.6-2.1-8.5-2.1-12.1,0l-57.7,33.3c-3.7,2.1-6,6.2-6,10.5v66.5c0,4.3,2.3,8.4,6,10.5l15.1,8.7c7.3,3.6,9.9,3.6,13.3,3.6c10.8,0,17.1-6.6,17.1-18v-65.7c0-0.9-0.7-1.7-1.7-1.7h-7.3c-0.9,0-1.7,0.7-1.7,1.7v65.7c0,5.1-5.3,10.1-13.8,5.8l-15.8-9.1c-0.6-0.3-0.9-0.9-0.9-1.5V134c0-0.6,0.4-1.3,0.9-1.6l57.6-33.3c0.5-0.3,1.3-0.3,1.8,0l57.6,33.3c0.6,0.3,0.9,0.9,0.9,1.6v66.5c0,0.7-0.3,1.3-0.9,1.6l-57.7,33.3c-0.5,0.3-1.3,0.3-1.8,0l-14.8-8.8c-0.4-0.3-1-0.3-1.4-0.1c-4.1,2.3-4.9,2.6-8.7,4c-0.9,0.3-2.4,0.9,0.5,2.5l19.2,11.4c1.9,1.1,4,1.6,6,1.6c2.1,0,4.2-0.6,6.1-1.6l57.7-33.3c3.7-2.2,6.1-6.2,6.1-10.5V134C197.8,129.7,195.5,125.7,191.7,123.5z M148.1,194.2c-17.2,0-21-4.3-22.3-12.9c-0.1-0.9-0.9-1.6-1.9-1.6h-8.4c-1,0-1.9,0.8-1.9,1.9c0,11,5.9,24,34.4,24c20.6,0,32.4-8.1,32.4-22.3c0-14-9.5-17.8-29.5-20.4c-20.2-2.7-22.3-4-22.3-8.8c0-3.9,1.7-9.1,16.7-9.1c13.4,0,18.3,2.9,20.3,11.9c0.2,0.8,0.9,1.5,1.8,1.5h8.4c0.5,0,1-0.2,1.4-0.6c0.4-0.4,0.6-0.9,0.5-1.4c-1.3-15.5-11.6-22.7-32.4-22.7c-18.5,0-29.6,7.8-29.6,20.9c0,14.2,11,18.2,28.8,19.9c21.3,2.1,23,5.2,23,9.4C167.6,191.2,161.8,194.2,148.1,194.2z M212.2,56.4c-0.1-0.1-0.3-0.1-0.4,0l-3.6,2.1c-0.1,0.1-0.2,0.2-0.2,0.4V63c0,0.1,0.1,0.3,0.2,0.4l3.6,2.1c0.1,0.1,0.3,0.1,0.4,0l3.6-2.1c0.1-0.1,0.2-0.2,0.2-0.4v-4.1c0-0.1-0.1-0.3-0.2-0.4L212.2,56.4z"/></g></g></g>
						</svg>